<?xml version="1.0" standalone="no"?><!DOCTYPE svg PUBLIC "-//W3C//DTD SVG 1.1//EN" "http://www.w3.org/Graphics/SVG/1.1/DTD/svg11.dtd"><svg t="1611209768747" class="icon" viewBox="0 0 1821 1024" version="1.1" xmlns="http://www.w3.org/2000/svg" p-id="1696" xmlns:xlink="http://www.w3.org/1999/xlink" width="355.6640625" height="200"><defs><style type="text/css"></style></defs><path d="M352.533333 169.466667v687.066666c0 64.133333 12.666667 76.4 74.4 76.4h843.866667c61.333333 0 74.4-11.733333 74.4-76.4V169.466667c0-62.666667-11.733333-76.4-74.4-76.4H426.933333c-61.466667 0.133333-74.4 11.066667-74.4 76.4z" fill="#B2D8F7" p-id="1697"></path><path d="M1228.4 754.8H469.866667c82.933333-123.866667 230.266667-330.533333 267.733333-330.533333 36.266667 0 159.333333 166.933333 214.933333 225.733333 0 0 71.466667-98 108.933334-98 38.4 0 165.733333 201.866667 166.933333 202.8zM1005.6 322.133333c0-51.866667 40.933333-93.866667 91.6-93.866666s91.6 42 91.6 93.866666-40.933333 93.866667-91.6 93.866667c-50.666667 0.133333-91.6-41.866667-91.6-93.866667z" fill="#FFFFFF" p-id="1698"></path><path d="M818.133333 47.066667L672.933333 18.8c-48.133333-9.333333-67.333333-6-79.066666 28.266667h224.266666zM1502 180.133333l-113.6-22.133333c0 2.8 0.133333 5.6 0.133333 8.4v691.066667c0 32-2.133333 68.4-26.8 93.2-24 24.133333-58.933333 26.133333-89.6 26.133333h-68.533333l145.733333 28.4c60.266667 11.733333 75.333333 2.8 87.066667-60.8L1561.333333 269.333333c11.333333-61.466667 2.4-77.2-59.333333-89.2zM269.866667 784.666667c-3.733333 0-7.6-1.466667-10.8-4.4l-182.666667-166.266667c-3.733333-3.466667-6.266667-8.533333-6.8-14.133333-0.666667-5.6 0.666667-11.2 3.466667-15.733334L225.866667 345.333333c6-9.333333 17.2-11.2 24.933333-4 7.866667 7.066667 9.333333 20.533333 3.333333 29.866667L112.266667 593.2l168.4 153.333333c7.866667 7.066667 9.333333 20.533333 3.333333 29.866667-3.466667 5.466667-8.8 8.266667-14.133333 8.266667zM1615.2 784.666667c-3.733333 0-7.6-1.466667-10.8-4.4-7.866667-7.066667-9.333333-20.533333-3.333333-29.866667l142-222.133333-168.4-153.333334c-7.866667-7.066667-9.333333-20.533333-3.333334-29.866666 6-9.333333 17.2-11.2 24.933334-4l182.666666 166.266666c7.866667 7.066667 9.333333 20.533333 3.333334 29.866667l-152.8 238.933333c-3.6 5.733333-8.8 8.533333-14.266667 8.533334z" fill="#DCDEE4" p-id="1699"></path></svg>